<?xml version="1.0" standalone="no"?>
<!DOCTYPE svg PUBLIC "-//W3C//DTD SVG 20010904//EN"
 "http://www.w3.org/TR/2001/REC-SVG-20010904/DTD/svg10.dtd">
<svg version="1.0" xmlns="http://www.w3.org/2000/svg"
 width="225.000000pt" height="225.000000pt" viewBox="0 0 225.000000 225.000000"
 preserveAspectRatio="xMidYMid meet">

<g transform="translate(0.000000,225.000000) scale(0.100000,-0.100000)"
fill="black" stroke="none">
<path d="M1053 1626 c-128 -42 -202 -149 -190 -276 6 -68 32 -122 84 -172 52
-50 99 -68 180 -68 79 0 131 21 181 71 129 128 98 346 -60 423 -66 32 -139 40
-195 22z m175 -55 c109 -56 151 -184 98 -298 -80 -171 -325 -168 -403 5 -90
194 114 390 305 293z"/>
<path d="M836 1026 c-31 -32 -68 -83 -87 -122 -32 -64 -33 -73 -34 -178 l0
-111 410 0 410 0 0 111 c-1 105 -2 114 -34 178 -31 63 -128 176 -152 176 -5 0
-12 -7 -15 -15 -4 -10 12 -31 45 -61 76 -68 114 -152 119 -265 l4 -89 -377 0
-377 0 4 89 c5 115 43 198 123 268 49 44 61 73 29 73 -7 0 -38 -24 -68 -54z"/>
</g>
</svg>
